<?xml version="1.0" encoding="UTF-8"?>
<svg id="b" data-name="Layer 2" xmlns="http://www.w3.org/2000/svg" width="2113.043" height="2113.043" viewBox="0 0 2113.043 2113.043">
  <g id="c" data-name="Layer 1">
    <g>
      <circle cx="1056.522" cy="1056.522" r="1056.522" fill="var(--brand-color, #007852)"/>
      <path d="M542.185,1506.56v-128.576h128.587v-450.049c0-88.925,26.768-167.958,80.368-237.068,53.568-69.121,123.205-114.369,208.944-135.82v-141.438h192.875v141.438c85.717,21.451,155.355,66.699,208.944,135.82,53.568,69.11,80.368,148.144,80.368,237.068v450.049h128.587v128.576H542.185ZM799.359,1377.984h514.326v-450.049c0-70.714-25.186-131.245-75.536-181.617-50.382-50.361-110.903-75.546-181.628-75.546s-131.267,25.186-181.628,75.546c-50.371,50.371-75.536,110.903-75.536,181.617v450.049ZM1056.522,1699.435c-35.357,0-65.644-12.582-90.808-37.768-25.196-25.164-37.779-55.452-37.779-90.808h257.174c0,35.357-12.614,65.644-37.779,90.808-25.186,25.186-55.452,37.768-90.808,37.768Z" fill="#f1f2f2"/>
    </g>
  </g>
</svg>